<svg width="518" height="120" xmlns="http://www.w3.org/2000/svg" xmlns:svg="http://www.w3.org/2000/svg">
 <g class="layer">
  <title>Layer 1</title>
  <path d="m0,27.66c0,-7.77 8.48,-12.57 15.14,-8.57l25.15,15.08c6.02,3.62 9.71,10.13 9.71,17.15l0,17.36c0,7.02 -3.69,13.53 -9.71,17.15l-25.15,15.08c-6.66,4 -15.14,-0.8 -15.14,-8.57l0,-64.68z" fill="#FA776C" id="svg_1"/>
  <path d="m103.86,0c5.29,0 7.99,6.36 4.31,10.17l-13.27,13.73c-3.77,3.9 -8.96,6.1 -14.38,6.1l-24.98,0c-3.63,0 -7.18,-0.99 -10.29,-2.85l-26.68,-16.01c-5.21,-3.13 -2.99,-11.14 3.09,-11.14l82.2,0z" fill="#624CF5" id="svg_2"/>
  <path d="m103.86,120c5.29,0 7.99,-6.36 4.31,-10.17l-13.27,-13.73c-3.77,-3.9 -8.96,-6.1 -14.38,-6.1l-24.98,0c-3.63,0 -7.18,0.99 -10.29,2.85l-26.68,16.01c-5.21,3.13 -2.99,11.14 3.09,11.14l82.2,0z" fill="#624CF5" id="svg_3"/>
  <rect fill="#FA776C" height="30" id="svg_4" rx="15" width="30" x="56" y="45"/>
  <text fill="#000000" font-family="Sans-serif" font-size="80" font-weight="bold" id="svg_7" stroke-width="0" text-anchor="middle" transform="matrix(1 0 0 1.19465 0 -13.6964)" x="319" xml:space="preserve" y="89.13">EventCent</text>
  <path d="m155,46.5c0,1.76 0,2.65 0,3.52c0,0.96 0,1.88 0,2.78c0,0.9 0,1.8 0,2.7c0,0.67 0,1.77 0,2.5c0,0.73 0,1.83 0,2.8c0,0.8 0,1.59 0,2.53c0,1.01 0,1.8 0,2.66c0,0.86 0,1.88 0,2.82c0,0.9 0,1.8 0,2.7c0,0.8 0,1.64 0,2.48c0,0.86 -0.26,2.49 0.5,2.45c0.78,-0.04 0.32,-1.47 0.52,-2.42c0.18,-0.87 0.84,-1.37 1.37,-2.35c0.37,-0.67 0.55,-1.57 0.78,-2.51c0.17,-0.68 0.41,-1.49 1,-2.5c0.44,-0.74 1.04,-1.33 1.67,-2.17c0.43,-0.58 0.87,-1.4 1.27,-2.2c0.41,-0.82 0.71,-1.48 1.1,-2.48c0.31,-0.81 0.47,-1.38 0.9,-2.39c0.37,-0.89 0.9,-1.76 1.3,-2.3c0.6,-0.8 0.94,-1.5 1.49,-2.14c0.69,-0.81 1.37,-1.02 2.09,-1.81c0.57,-0.62 1.06,-1.48 1.5,-2.16c0.52,-0.79 0.89,-1.67 1.24,-2.32c0.45,-0.85 0.76,-1.71 1.23,-2.5c0.39,-0.65 1.09,-0.14 0.83,0.62c-0.3,0.89 -0.88,1.66 -1.41,2.34c-0.53,0.67 -1.02,1.35 -1.57,2.12c-0.39,0.53 -0.97,1.31 -1.59,1.97c-0.58,0.61 -1.4,1.23 -2.2,1.75c-0.6,0.39 -1.4,0.98 -2,1.5c-0.6,0.52 -1.4,1.12 -2.24,1.63c-0.92,0.55 -1.45,0.85 -2.24,1.37c-0.51,0.34 -1.54,1.14 -2.14,1.59c-0.85,0.64 -1.4,0.92 -2.39,1.41c-0.81,0.41 -1.45,0.72 -2.42,1.1c-0.79,0.31 -1.56,0.58 -2.61,0.82c-0.71,0.16 -1.61,0.47 -2.32,0.73c-1,0.37 -1.8,0.73 -2.54,1.07c-0.73,0.33 -1.63,0.28 -2.59,0.28c-0.92,0 -1.81,0 -1.72,0c0.83,0 1.85,0 2.6,0c0.99,0 1.76,0.09 2.84,0c0.93,-0.08 1.58,-0.48 2.44,-0.71c0.98,-0.27 1.8,-0.22 2.54,-0.37c0.98,-0.19 1.64,-0.69 2.61,-0.89c0.76,-0.16 1.76,-0.41 2.4,-0.6c1.17,-0.36 1.99,-0.38 2.54,-0.45c1.31,-0.16 1.98,-0.44 2.82,-0.69c0.79,-0.24 1.77,-0.27 2.65,-0.64c0.74,-0.31 1.51,-0.59 2.5,-0.64c0.92,-0.04 1.71,-0.01 2.65,-0.01l0.9,-0.01l0.62,-0.56l0.14,-0.73" fill="none" id="svg_8"/>
 </g>

</svg>